<svg xmlns="http://www.w3.org/2000/svg" viewBox="0 0 1000 990"><mask id="mask"><path d="M1000,0H0V718.31H179.2c38.38,142.38,167.45,247.1,320.8,247.1s282.42-104.72,320.8-247.1H1000Z" fill="white"></path></mask><g mask="url(#mask)"><circle cx="500" cy="630.1601" r="332.441995" fill="#85c5e5"></circle><path d="M833.15,369a58.35,58.35,0,0,0-35.89-54.16,58.56,58.56,0,0,0,25.82-48.77c0-27.77-19-51-44.47-56.88a59.13,59.13,0,0,0,7.51-28.9C786.12,148.1,760.55,122,729,122a55.89,55.89,0,0,0-24.2,5.49,58.35,58.35,0,0,0,.67-8.92c0-32.21-25.57-58.33-57.12-58.33a56.49,56.49,0,0,0-43.76,20.86c-1.61-30.74-26.53-55.17-57-55.17A56.9,56.9,0,0,0,497.6,56a56.93,56.93,0,0,0-50-30.07c-30.5,0-55.42,24.43-57,55.17a56.53,56.53,0,0,0-43.77-20.86c-31.53,0-57.11,26.11-57.11,58.33a59.65,59.65,0,0,0,.66,8.92A55.76,55.76,0,0,0,266.21,122c-31.54,0-57.12,26.12-57.12,58.33a59,59,0,0,0,7.51,28.9c-25.45,5.88-44.46,29.11-44.46,56.88A58.56,58.56,0,0,0,198,314.86a58.83,58.83,0,0,0-1.13,107.85,58.81,58.81,0,0,0-14.6,39c0,28.51,20.05,52.25,46.54,57.33-11.51,10.31,545.36,10.93,534.18.55,28.2-3.57,50-28.11,50-57.87a58.87,58.87,0,0,0-14.61-39A58.4,58.4,0,0,0,833.15,369ZM270.81,513.54c-.93-.52-1.89-1-2.85-1.41C268.93,511.56,270.81,513.54,270.81,513.54Z" fill="#D69AC7"></path><path d="M470,505.43a51,51,0,0,1-85.38-36.67,51.1,51.1,0,0,1-63.44-66.59,51.18,51.18,0,0,1-32.54-87.48,51.32,51.32,0,0,1-1.26-93.62A51.42,51.42,0,0,1,327,136.89h.16a51.55,51.55,0,0,1,50-63.89,53,53,0,0,1,5.66.31,56.13,56.13,0,0,0-36-13.09c-31.54,0-57.11,26.11-57.11,58.33a59.65,59.65,0,0,0,.66,8.92A55.76,55.76,0,0,0,266.21,122c-31.54,0-57.12,26.12-57.12,58.33a59,59,0,0,0,7.51,28.9c-25.45,5.88-44.46,29.11-44.46,56.88A58.56,58.56,0,0,0,198,314.86a58.83,58.83,0,0,0-1.13,107.85,58.81,58.81,0,0,0-14.6,39c0,28.51,20.05,52.25,46.54,57.33-5.61,5,123.81,7.75,256.66,8A51.14,51.14,0,0,1,470,505.43Z" fill="#C683B4"></path><path d="M741.2,386l-35,78.16,39.47,58.61c12.24-.91,18.61-2,17.31-3.17,28.2-3.57,50-28.11,50-57.87a60.75,60.75,0,0,0-.8-9.7C792.18,391.39,741.2,386,741.2,386Z" fill="#C683B4"></path><path d="M833.15,369a58.35,58.35,0,0,0-35.89-54.16,58.56,58.56,0,0,0,25.82-48.77c0-27.77-19-51-44.47-56.88a59.13,59.13,0,0,0,7.51-28.9C786.12,148.1,760.55,122,729,122a55.89,55.89,0,0,0-24.2,5.49,58.35,58.35,0,0,0,.67-8.92c0-32.21-25.57-58.33-57.12-58.33a56.49,56.49,0,0,0-43.76,20.86c-1.61-30.74-26.53-55.17-57-55.17A56.9,56.9,0,0,0,497.6,56a56.93,56.93,0,0,0-50-30.07c-30.5,0-55.42,24.43-57,55.17a56.53,56.53,0,0,0-43.77-20.86c-31.53,0-57.11,26.11-57.11,58.33a59.65,59.65,0,0,0,.66,8.92A55.76,55.76,0,0,0,266.21,122c-31.54,0-57.12,26.12-57.12,58.33a59,59,0,0,0,7.51,28.9c-25.45,5.88-44.46,29.11-44.46,56.88A58.56,58.56,0,0,0,198,314.86a58.83,58.83,0,0,0-1.13,107.85,58.81,58.81,0,0,0-14.6,39c0,28.51,20.05,52.25,46.54,57.33-11.51,10.31,545.36,10.93,534.18.55,28.2-3.57,50-28.11,50-57.87a58.87,58.87,0,0,0-14.61-39A58.4,58.4,0,0,0,833.15,369Z" fill="none" stroke="#592d3d" stroke-miterlimit="10" stroke-width="12px"></path><path d="M610,758.72c90.76,0,72,114.24,72.87,241.28H610Z" fill="#A56941"></path><path d="M632.74,831.87,610,870l11.38,130h31.76C653.91,819.73,632.74,831.87,632.74,831.87Z" fill="#8D5638"></path><path d="M233.25,500c0-147.32,119.43-266.75,266.75-266.75S766.75,352.68,766.75,500A266.22,266.22,0,0,1,668.1,707.12q-8.21,6.68-16.94,12.69C591,758,515,758,446.39,751.89c-6.66-1-13.3-2.26-19.89-3.71-26.33-5.8-51.82-14.75-75.37-27.8Q342.4,715,334.2,708.76a199.59,199.59,0,0,1-15.8-13.38q-7.14-6.63-13.79-13.78A265.86,265.86,0,0,1,233.25,500Z" fill="#A56941"></path><path d="M269.61,634.48c.7,1.2,1.39,2.4,2.11,3.58.43.72.88,1.42,1.33,2.14.66,1.07,1.32,2.14,2,3.19.48.76,1,1.5,1.46,2.24.66,1,1.32,2,2,3,.51.76,1,1.52,1.56,2.28.66,1,1.32,1.92,2,2.88.54.77,1.1,1.53,1.65,2.3s1.34,1.85,2,2.77,1.15,1.53,1.73,2.29,1.37,1.8,2.07,2.7,1.19,1.51,1.79,2.26,1.41,1.76,2.12,2.63,1.23,1.49,1.85,2.23,1.44,1.72,2.17,2.57,1.27,1.47,1.91,2.2l2.22,2.5c.65.73,1.31,1.44,2,2.16.86.94,1.73,1.87,2.6,2.79l1.21,1.28c1.29,1.34,2.59,2.68,3.91,4l.26.27c1.29,1.28,2.6,2.55,3.91,3.81l1.58,1.5c.95.89,1.9,1.78,2.86,2.66l1.16,1.06c1,.94,2.09,1.86,3.14,2.78q4.9,4.27,10,8.19,8.19,6.24,16.93,11.62c23.55,13,49,22,75.37,27.8,6.59,1.45,13.23,2.7,19.89,3.71,42.1,3.75,87,5.18,129.28-3.08C508.45,729,185.59,612.74,388.8,257.48h0c-2.72,1.25-5.4,2.54-8.06,3.88l-.59.29c-1.22.61-2.44,1.24-3.65,1.88l-1,.53c-3.76,2-7.48,4.07-11.13,6.23l-.9.53c-1.16.69-2.31,1.39-3.46,2.1l-.87.54q-5.36,3.35-10.55,6.93l-1.08.75c-1.09.76-2.16,1.52-3.23,2.29l-.66.47q-3.27,2.39-6.46,4.84l-.62.48c-1,.78-2,1.58-3,2.39l-1.17.94c-1,.81-2,1.62-3,2.45l0,0c-2.11,1.75-4.19,3.55-6.24,5.37l-1.14,1-2.69,2.45L318,305q-4.28,4-8.37,8.17l-1.38,1.41c-.79.82-1.58,1.64-2.36,2.47-.46.49-.92,1-1.37,1.48q-2.06,2.2-4.06,4.46c-.45.51-.91,1-1.36,1.54-.71.81-1.41,1.63-2.11,2.45l-1.51,1.79c-.68.81-1.36,1.62-2,2.44-.54.66-1.08,1.33-1.61,2-1.07,1.33-2.12,2.66-3.16,4-.54.7-1.08,1.4-1.61,2.11s-1.2,1.59-1.79,2.4-1.07,1.45-1.59,2.18-1.13,1.55-1.68,2.33q-1.42,2-2.8,4.05c-.5.73-1,1.48-1.49,2.22s-1.1,1.66-1.64,2.5l-1.49,2.31-1.68,2.71c-.43.69-.86,1.38-1.28,2.07-.89,1.46-1.75,2.93-2.61,4.4l-1.22,2.16c-.54.95-1.08,1.91-1.61,2.87-.4.73-.8,1.46-1.19,2.19-.64,1.19-1.27,2.39-1.9,3.59l-1.2,2.34c-.64,1.28-1.28,2.55-1.91,3.84-.33.69-.67,1.39-1,2.09-.52,1.09-1,2.19-1.53,3.29-.31.66-.61,1.32-.91,2q-1.11,2.47-2.17,5c-.22.52-.43,1.05-.65,1.57-.53,1.27-1.05,2.54-1.56,3.82-.27.67-.53,1.34-.79,2-.5,1.26-1,2.53-1.45,3.8-.21.55-.42,1.1-.62,1.65q-.94,2.63-1.85,5.26l-.56,1.7q-.66,2-1.29,4l-.6,1.91c-.47,1.54-.93,3.08-1.37,4.63-.1.33-.2.66-.29,1q-.78,2.76-1.5,5.54c-.16.59-.3,1.19-.45,1.78-.35,1.39-.69,2.78-1,4.18l-.42,1.75c-.43,1.9-.85,3.8-1.24,5.71l-.15.77q-.51,2.55-1,5.1c-.11.61-.21,1.21-.32,1.82-.26,1.49-.51,3-.74,4.5-.08.51-.17,1-.24,1.52-.3,1.95-.57,3.91-.83,5.88l-.15,1.3c-.2,1.59-.38,3.19-.55,4.79-.06.6-.13,1.2-.19,1.81-.16,1.68-.31,3.37-.45,5.06,0,.35-.06.69-.08,1q-.22,3-.39,6.05c0,.53,0,1.07-.07,1.6q-.1,2.36-.18,4.71c0,.59,0,1.18,0,1.77,0,2.05-.08,4.11-.08,6.17,0,0,0,.07,0,.1,0,2.22,0,4.42.08,6.62,0,.76.06,1.52.08,2.28.05,1.47.1,2.94.17,4.41,0,.89.11,1.77.16,2.66.08,1.33.15,2.66.25,4,.07,1,.16,1.89.24,2.83.11,1.26.21,2.52.34,3.77.09,1,.21,1.94.31,2.91.14,1.21.27,2.43.42,3.64.12,1,.26,2,.39,2.95.16,1.18.32,2.37.5,3.55.15,1,.31,2,.47,3,.18,1.16.37,2.33.57,3.49.18,1,.36,2,.55,3,.21,1.15.43,2.3.65,3.44s.41,2,.62,3c.24,1.14.48,2.27.74,3.4s.44,2,.68,2.93c.26,1.13.54,2.25.82,3.36s.49,1.95.74,2.91c.3,1.12.6,2.23.91,3.34.26,1,.53,1.92.81,2.87.32,1.11.65,2.21,1,3.31s.58,1.89.88,2.84.7,2.19,1.06,3.28.62,1.87.94,2.8c.38,1.09.76,2.18,1.15,3.27.33.91.65,1.83,1,2.74l1.24,3.27c.35.89.69,1.79,1,2.68.44,1.09.89,2.19,1.34,3.28.36.86.71,1.73,1.08,2.59.47,1.12,1,2.22,1.45,3.33.37.82.73,1.65,1.1,2.47.52,1.16,1.07,2.3,1.6,3.44l1.08,2.3c.61,1.26,1.24,2.5,1.87,3.75.32.63.62,1.27.95,1.9q2.88,5.61,6,11.07C268.88,633.26,269.25,633.87,269.61,634.48Z" fill="#8D5638"></path><path d="M233.25,500c0-147.32,119.43-266.75,266.75-266.75S766.75,352.68,766.75,500A266.22,266.22,0,0,1,668.1,707.12q-8.21,6.68-16.94,12.69C591,758,515,758,446.39,751.89c-6.66-1-13.3-2.26-19.89-3.71-26.33-5.8-51.82-14.75-75.37-27.8Q342.4,715,334.2,708.76a199.59,199.59,0,0,1-15.8-13.38q-7.14-6.63-13.79-13.78A265.86,265.86,0,0,1,233.25,500Z" fill="none" stroke="#592d3d" stroke-miterlimit="10" stroke-width="12px"></path><path d="M386.12,758.72c-90.77,0-72,114.24-72.87,241.28h72.87Z" fill="#A56941"></path><path d="M367.23,831.87,390,870l-11.39,130H346.88C346.07,819.73,367.23,831.87,367.23,831.87Z" fill="#8D5638"></path><path d="M619.47,1070H380.53a13.28,13.28,0,0,1-13.27-13.28V772a13.28,13.28,0,0,1,13.27-13.28H613.76c13.09,0,19,7.66,19,19.88v278.08A13.28,13.28,0,0,1,619.47,1070Z" fill="#A56941"></path><path d="M629.05,766.62a19.33,19.33,0,0,1-2.51-4,17.25,17.25,0,0,0-8.28-3.51,28.88,28.88,0,0,0-4.5-.34H380.53A13.28,13.28,0,0,0,367.26,772c29,10.42,83.29,16.24,132.74,16.24C563.06,788.24,604.38,778.89,629.05,766.62Z" fill="#8D5638"></path><path d="M610,758.72c90.76,0,72,114.24,72.87,241.28H632.74" fill="none" stroke="#592d3d" stroke-linecap="square" stroke-miterlimit="10" stroke-width="12px"></path><path d="M386.12,758.72c-90.77,0-72,114.24-72.87,241.28h50.07" fill="none" stroke="#592d3d" stroke-linecap="square" stroke-miterlimit="10" stroke-width="12px"></path><path d="M380.53,758.82l233.23-.1" fill="none" stroke="#592d3d" stroke-miterlimit="10" stroke-width="12px"></path><path d="M380.53,1070H497.15C388,1070,396.24,838.82,367.26,838.82v217.86A13.28,13.28,0,0,0,380.53,1070Z" fill="#8D5638"></path><path d="M361.26,860.85c-.19-3.67-.11-7.34.05-11s.47-7.35.86-11c.2-1.84.4-3.67.65-5.51s.49-3.67.85-5.51a44.18,44.18,0,0,1,3.59-11,44.18,44.18,0,0,1,3.59,11c.36,1.84.62,3.67.85,5.51s.45,3.67.65,5.51c.38,3.67.68,7.34.85,11s.25,7.34.06,11Z" fill="#592d3d"></path><path d="M632.74,870v8c.26,34,.26,69,0,102.75,0,2.87,0,5.72,0,8.53v67.41A13.28,13.28,0,0,1,619.47,1070H380.53a13.28,13.28,0,0,1-13.27-13.28V998.52c0-2.51,0-5.07,0-7.65-.25-34.87-.25-69.87,0-105.3V860.85" fill="none" stroke="#592d3d" stroke-miterlimit="10" stroke-width="12px"></path><path d="M626.74,870c-.19-4.17-.1-8.35.06-12.53s.47-8.35.85-12.53c.2-2.09.41-4.18.65-6.27s.49-4.17.85-6.26a55.09,55.09,0,0,1,3.59-12.53,55.09,55.09,0,0,1,3.59,12.53c.36,2.09.62,4.18.85,6.26s.45,4.18.65,6.27c.38,4.18.69,8.35.85,12.53s.25,8.36.06,12.53Z" fill="#592d3d"></path><path d="M502.07,878.86A69.31,69.31,0,1,1,371,847.39" fill="none" stroke="#592d3d" stroke-miterlimit="10" stroke-width="12px"></path><path d="M371,847.39a69.68,69.68,0,0,1,15-19.67" fill="#A56941"></path><path d="M365.65,844.66a27,27,0,0,1,3.38-5.84,37.22,37.22,0,0,1,4.53-5c.84-.76,1.69-1.5,2.58-2.19a21.1,21.1,0,0,1,2.81-1.92,15,15,0,0,1,7-2,25,25,0,0,1-1.75,6.81c-.39,1-.83,1.88-1.29,2.77l-1.3,2.67c-.85,1.76-1.69,3.49-2.55,5.19a54.51,54.51,0,0,1-2.76,5Z" fill="#592d3d"></path><path d="M489.33,838.82a69,69,0,0,1,12.74,40" fill="#A56941"></path><path d="M489.33,838.82a26.55,26.55,0,0,1,8.69,7.55,38.8,38.8,0,0,1,3.1,4.79c.93,1.67,1.77,3.39,2.55,5.15a55.12,55.12,0,0,1,3.46,11,48,48,0,0,1,.94,11.53h-12c-.19-3.25-.36-6.48-.7-9.73s-.77-6.48-1.4-9.74l-.5-2.44-.58-2.45c-.42-1.63-.87-3.26-1.29-4.93A104.17,104.17,0,0,1,489.33,838.82Z" fill="#592d3d"></path><path d="M641.65,878.86a69.14,69.14,0,0,0-21.94-50.6" fill="#A56941"></path><path d="M635.65,878.86A107,107,0,0,0,634.39,866a81.92,81.92,0,0,0-3.12-12.67c-.34-1-.74-2.07-1.11-3.11s-.84-2.05-1.25-3.09-.94-2-1.38-3.05l-1.46-3c-2-4.1-4.17-8.19-6.36-12.75a35.76,35.76,0,0,1,12.22,8.61c.83.94,1.7,1.86,2.47,2.85s1.54,2,2.25,3,1.43,2.09,2.07,3.18,1.31,2.18,1.88,3.32A62.19,62.19,0,0,1,646,863.58a56.6,56.6,0,0,1,1.62,15.28Z" fill="#592d3d"></path><path d="M503,878.86a69.31,69.31,0,1,0,138.61,0" fill="none" stroke="#592d3d" stroke-miterlimit="10" stroke-width="12px"></path><path d="M515.77,838.82a69,69,0,0,0-12.73,40" fill="#A56941"></path><path d="M515.77,838.82a104.17,104.17,0,0,1-2.27,10.75c-.42,1.67-.87,3.3-1.29,4.93l-.57,2.45-.5,2.44c-.63,3.26-1.09,6.5-1.41,9.74s-.5,6.48-.69,9.73H497a47,47,0,0,1,.94-11.53,54.48,54.48,0,0,1,3.46-11c.77-1.76,1.61-3.48,2.54-5.15a40,40,0,0,1,3.1-4.79A26.66,26.66,0,0,1,515.77,838.82Z" fill="#592d3d"></path><line x1="383.44" y1="837.55" x2="383.44" y2="758.72" fill="none" stroke="#592d3d" stroke-miterlimit="10" stroke-width="12px"></line><line x1="616.46" y1="837.55" x2="616.46" y2="758.72" fill="none" stroke="#592d3d" stroke-miterlimit="10" stroke-width="12px"></line><path d="M470.5,897.78h53.9v19.7c-17.74-6.05-35.71-5.9-53.9,0Z" fill="#D67070" stroke="#592d3d" stroke-miterlimit="10" stroke-width="12px"></path><path d="M638.1,878.86a69.06,69.06,0,0,0-18.63-47.28c-4.22-4.52-44.27,6.19-67.81,27.26-23.11,20.69-43.23,54.49-40.35,58.75A69.31,69.31,0,0,0,638.1,878.86Z" fill="#D67070" stroke="#592d3d" stroke-miterlimit="10" stroke-width="12px"></path><path d="M598.11,848.39c-6.12,3.67-12.15,7.18-18,11a154.79,154.79,0,0,0-16.53,12.18c-5.15,4.46-10.11,9.32-15,14.26s-9.69,10-14.75,15.07a100,100,0,0,1,11.18-18.17A106.06,106.06,0,0,1,559.72,867a84.36,84.36,0,0,1,18.14-11.73A83.45,83.45,0,0,1,598.11,848.39Z" fill="#ffffff"></path><path d="M361.9,878.86a69.06,69.06,0,0,1,18.63-47.28c4.22-4.52,44.27,6.19,67.81,27.26,23.11,20.69,43.23,54.49,40.35,58.75A69.31,69.31,0,0,1,361.9,878.86Z" fill="#D67070" stroke="#592d3d" stroke-miterlimit="10" stroke-width="12px"></path><path d="M455.75,938.92a85.36,85.36,0,0,1-85.36-85.36,86.38,86.38,0,0,1,.44-8.71,69.31,69.31,0,0,0,96.31,93.29A85.67,85.67,0,0,1,455.75,938.92Z" fill="#C46565"></path><path d="M361.9,878.86a69.06,69.06,0,0,1,18.63-47.28c4.22-4.52,44.27,6.19,67.81,27.26,23.11,20.69,43.23,54.49,40.35,58.75A69.31,69.31,0,0,1,361.9,878.86Z" fill="none" stroke="#592d3d" stroke-miterlimit="10" stroke-width="12px"></path><path d="M401.89,848.39a83.45,83.45,0,0,1,20.25,6.87A84.36,84.36,0,0,1,440.28,867a106.06,106.06,0,0,1,14.65,15.71,100,100,0,0,1,11.18,18.17c-5.06-5-9.84-10.13-14.75-15.07s-9.84-9.8-15-14.26a154.79,154.79,0,0,0-16.53-12.18C414,855.57,408,852.06,401.89,848.39Z" fill="#ffffff"></path><path d="M664.05,702.32c28.31-23,54.41-54.72,70.68-86.1-.06-.1-3.49,3.38-3.55,3.28S710.11,638.28,649.66,638c-76.3-.31-60.54-21.68-152.51-21.68-81.42,0-68.49,11.89-145.15,16.15-62.09,3.45-83.62-13-83.62-13l-.2.33a261.18,261.18,0,0,0,40.56,57.53c4.32,4.65,8.86,9.18,13.48,13.48a193.3,193.3,0,0,0,15.35,13c5.18,3.95,10.67,7.72,16.33,11.21,21.71,12,46.48,21.14,73.63,27.13,6.49,1.43,13,2.64,19.31,3.6,65.81,5.85,141.08,6.7,200.74-31.12C653.21,710.78,658.75,706.63,664.05,702.32Z" opacity="0.15"></path><circle cx="311.51" cy="659.14" r="4.18" fill="#592d3d"></circle><circle cx="338.51" cy="663.32" r="2.96" fill="#592d3d"></circle><circle cx="401.05" cy="707.98" r="2.96" fill="#592d3d"></circle><circle cx="506.83" cy="711.31" r="2.96" fill="#592d3d"></circle><circle cx="517.63" cy="704.5" r="2.96" fill="#592d3d"></circle><circle cx="578.33" cy="701.54" r="2.96" fill="#592d3d"></circle><circle cx="581.29" cy="683.15" r="2.96" fill="#592d3d"></circle><circle cx="391.69" cy="690.72" r="5.37" fill="#592d3d"></circle><circle cx="600.44" cy="707.45" r="2.09" fill="#592d3d"></circle><circle cx="642.96" cy="696.08" r="4.18" fill="#592d3d"></circle><circle cx="462.56" cy="724.04" r="4.18" fill="#592d3d"></circle><circle cx="642.96" cy="663.22" r="2.96" fill="#592d3d"></circle><circle cx="654.05" cy="673.06" r="2.96" fill="#592d3d"></circle><circle cx="341.06" cy="569.08" r="20.96" fill="#592d3d"></circle><path d="M340.93,586c1.79-.1,3.79-.26,5.7-.46s3.86-.44,5.79-.74,3.87-.65,5.81-1,3.92-.68,6-.83a24.74,24.74,0,0,1-5.31,3.12,48.86,48.86,0,0,1-5.78,2,50.61,50.61,0,0,1-6,1.36,36.13,36.13,0,0,1-6.24.54Z" fill="#592d3d"></path><circle cx="661.77" cy="569.08" r="20.96" fill="#592d3d"></circle><path d="M661.77,586c1.8-.1,3.79-.26,5.7-.46s3.87-.44,5.8-.74,3.87-.65,5.81-1,3.92-.68,6-.83a25,25,0,0,1-5.31,3.12,48.86,48.86,0,0,1-5.78,2,51.06,51.06,0,0,1-6,1.36,36.22,36.22,0,0,1-6.24.54Z" fill="#592d3d"></path><path d="M443.14,621.86c0-18.9,113.72-16.06,113.72,0a56.86,56.86,0,0,1-113.72,0Z" fill="#592d3d"></path><path d="M443.14,621.86c0-18.9,113.72-16.06,113.72,0a56.86,56.86,0,0,1-113.72,0Z" fill="none" stroke="#592d3d" stroke-miterlimit="10" stroke-width="6px"></path><path d="M532.49,646.6c0-8.06-14.55-14.6-32.49-14.6s-32.49,6.54-32.49,14.6h0v44.34c0,14.41,14.55,26.08,32.49,26.08s32.49-11.67,32.49-26.08V646.61Z" fill="#f28195"></path><path d="M532.49,646.6c0-8.06-14.55-14.6-32.49-14.6s-32.49,6.54-32.49,14.6h0v44.34c0,14.41,14.55,26.08,32.49,26.08s32.49-11.67,32.49-26.08V646.61Z" fill="none" stroke="#592d3d" stroke-miterlimit="10" stroke-width="8px"></path><path d="M479.31,626.6l.91-.21.76-.14c.49-.08,1-.14,1.46-.18a21.42,21.42,0,0,1,2.89-.1,25,25,0,0,1,5.79.81,21.39,21.39,0,0,1,10.34,6.11A20.07,20.07,0,0,1,506.54,643a17.19,17.19,0,0,1-1.37,10.35c-2.08-2.93-3.66-5.55-5.32-7.76a27.26,27.26,0,0,0-2.46-3,14.09,14.09,0,0,0-2.69-2.16,15.31,15.31,0,0,0-6.11-2.08,25.67,25.67,0,0,0-3.43-.22c-.59,0-1.18,0-1.76,0l-.85.06-.4,0c-.09,0-.29,0-.22,0Z" fill="#592d3d"></path><path d="M558.42,406.88c-12.87,24-60,37.45-63.83,31.42-4.3-6.73,37.85-55.32,13.9-106.14" fill="#8D5638"></path><path d="M500.15,221.81C369,221.81,247.79,328.25,226,457c0,0,201.33,15.23,274.66-66.75-4.65,22.65-17.72,39.87-15.51,43.33,3.08,4.84,40.92-5.92,51.25-25.22l-3.66-5.48C582.65,421,680.23,443.46,746,375.26,702.52,285,604.61,221.81,500.15,221.81Z" fill="#D69AC7"></path><path d="M331.52,454.81a51.09,51.09,0,0,1-10.35-52.64,51.12,51.12,0,0,1-47.23-58.35c-24.09,33.69-41,72.3-48,113.18A671.08,671.08,0,0,0,331.52,454.81Z" fill="#C683B4"></path><path d="M739.66,389.6C665,447,579.07,424.7,533.51,405.69c-10.14,17.94-45.26,27.89-48.15,23.36-2-3.08,8.82-17.65,13.78-37.16-74.28,80.27-259.85,72-259.85,72" fill="none" stroke="#592d3d" stroke-miterlimit="10" stroke-width="12px"></path><path d="M280.92,140.17a53.59,53.59,0,0,0-20.26,5A45.83,45.83,0,0,0,245,157a18.94,18.94,0,0,0-1.53,1.92c-.48.66-1,1.28-1.46,2a43.23,43.23,0,0,0-2.56,4.23,52.32,52.32,0,0,0-3.9,9.18,62.77,62.77,0,0,0-2.29,20.8A36.91,36.91,0,0,1,229.42,173l.53-2.86.29-1.44c.11-.47.27-.93.41-1.4.28-.94.56-1.88.87-2.81s.76-1.8,1.14-2.71a43.25,43.25,0,0,1,2.76-5.21c.51-.85,1.14-1.61,1.7-2.42a24.27,24.27,0,0,1,1.82-2.33,39.88,39.88,0,0,1,19.58-12.56A34.18,34.18,0,0,1,280.92,140.17Z" fill="#ffffff"></path><path d="M358.88,77.15a62.84,62.84,0,0,0-18,2,52.26,52.26,0,0,0-15.47,7.06A51.64,51.64,0,0,0,313.09,98c-.84,1.18-1.8,2.31-2.53,3.58l-1.21,1.88c-.43.62-.71,1.3-1.09,2a73.25,73.25,0,0,0-4.1,8.38,28.54,28.54,0,0,1,.39-9.7c.17-.8.27-1.63.52-2.42l.74-2.36a31.32,31.32,0,0,1,1.91-4.61A39,39,0,0,1,321,79.59,39.38,39.38,0,0,1,339.89,73,32.35,32.35,0,0,1,358.88,77.15Z" fill="#ffffff"></path><path d="M603.1,452.29a320.74,320.74,0,0,1,33.51-6.66L634,446a150.31,150.31,0,0,1,39.75-.48l-2.66-.36c3.28.45,6.54,1,9.82,1.41l-2.66-.35a222.52,222.52,0,0,1,29.48,6.1c5,1.4,11.11-1.72,12.3-7a10.19,10.19,0,0,0-7-12.3,239.34,239.34,0,0,0-34.58-6.78l2.65.36a142.93,142.93,0,0,0-33.43-1.95,236.67,236.67,0,0,0-33.1,4.54c-5.61,1.14-11.19,2.44-16.76,3.81-5.08,1.25-8.61,7.26-7,12.3a10.21,10.21,0,0,0,12.3,7Z" fill="#592d3d"></path><path d="M261.26,502.22l14.13-1.48,33.67-3.52L350,492.93l35.18-3.69c5.72-.59,11.44-1.17,17.16-1.79l.24,0c2.73-.28,5.07-.92,7.07-2.93a10,10,0,0,0,0-14.14c-1.83-1.69-4.48-3.2-7.07-2.93l-14.13,1.48-33.67,3.53-41,4.29-35.18,3.68c-5.72.6-11.44,1.18-17.16,1.8l-.24,0c-2.73.29-5.07.93-7.07,2.93a10,10,0,0,0,0,14.15c1.83,1.68,4.48,3.2,7.07,2.92Z" fill="#592d3d"></path><path d="M725,631.82a265.34,265.34,0,0,0,26.3-59.43c-17.24,35.74-49.84,65.46-92.11,65.46A106.75,106.75,0,0,1,552.58,531.22,105.67,105.67,0,0,1,560.41,491H758a105.33,105.33,0,0,1,7.62,33.39c.73-8,1.12-16.19,1.12-24.42a269.16,269.16,0,0,0-1.58-29H575v0H423.14v0H234.83a269.16,269.16,0,0,0-1.58,29c0,4.73.14,9.42.38,14.09A104.92,104.92,0,0,1,240.1,491H437.7a106.7,106.7,0,0,1-98.8,146.82c-38.8,0-68.82-25.83-87.48-56.89a266.14,266.14,0,0,0,24.76,52.84c19.39,12.07,38.25,24.05,62.72,24.05A126.78,126.78,0,0,0,465.53,531.22c0-1.81,0-3.61-.12-5.4,23.38-8.23,45.52-8.35,67.31-.36-.08,1.91-.14,3.83-.14,5.76A126.78,126.78,0,0,0,659.21,657.85C685,657.85,705,645.1,725,631.82ZM535.26,505.18c-23.4-7.55-47.64-7.42-72.33.39A124.62,124.62,0,0,0,459,491h80.1A122.6,122.6,0,0,0,535.26,505.18Z" opacity="0.15"></path><path d="M233.59,469.82s.41,32.23.41,50.2c0,64.41,40.48,116.63,104.9,116.63A116.68,116.68,0,0,0,444.2,469.82Z" fill="#592d3d" opacity="0.95"></path><path d="M553.91,469.82a116.68,116.68,0,0,0,105.3,166.83c64.42,0,107.54-52.22,107.54-116.63,0-18-2.23-50.2-2.23-50.2Z" fill="#592d3d" opacity="0.95"></path><path d="M320,626.86,443.07,503.78a93.05,93.05,0,0,0-10-17.27L302.72,616.88A93.62,93.62,0,0,0,320,626.86Z" fill="#ffffff" opacity="0.25"></path><path d="M455.86,507.53c29.52-12,58.53-12.42,87,0" fill="none" stroke="#592d3d" stroke-miterlimit="10" stroke-width="20px"></path><path d="M274.28,504.75c2.06,6.51-5.94,11.51-11.94,12.51-6,0-10-4-12-9-1-5,0-10,4-13,5-2,12-4,16.44,1.12A11.7,11.7,0,0,1,274.28,504.75Z" fill="#ffffff"></path><path d="M285,500.93c-.61,4.33-6.61,4.33-7.61.33,0-3,1-4,3.84-4.1A3.77,3.77,0,0,1,285,500.93Z" fill="#ffffff"></path><path d="M645.19,618.92,751.47,512.64a93.89,93.89,0,0,0-2.41-11.22L634,616.51A94.31,94.31,0,0,0,645.19,618.92Z" fill="#ffffff" opacity="0.25"></path><path d="M590.68,505.73c2.06,6.51-5.94,11.51-11.94,12.51-6,0-10-4-12-9-1-5,0-10,4-13,5-2,12-4,16.45,1.12A11.69,11.69,0,0,1,590.68,505.73Z" fill="#ffffff"></path><path d="M601.35,501.91c-.61,4.33-6.61,4.33-7.61.33,0-3,1-4,3.85-4.1A3.76,3.76,0,0,1,601.35,501.91Z" fill="#ffffff"></path><path d="M233.59,469.82s-.34,31.69.41,50.2c2.6,64.36,40.48,116.63,104.9,116.63A116.68,116.68,0,0,0,444.2,469.82Z" fill="none" stroke="#592d3d" stroke-miterlimit="10" stroke-width="20px"></path><path d="M553.91,469.82a116.68,116.68,0,0,0,105.3,166.83c64.42,0,107.54-51.53,107.54-115.94,0-18-2.23-50.89-2.23-50.89Z" fill="none" stroke="#592d3d" stroke-miterlimit="10" stroke-width="20px"></path><line x1="423.14" y1="469.81" x2="574.97" y2="469.81" fill="none" stroke="#592d3d" stroke-miterlimit="10" stroke-width="20px"></line></g></svg>